# xmcd
#
# Track frame offsets: 
#        150
#        11848
#        26997
#        49243
#        65035
#        84287
#        85229
#        99122
#        118480
#        133581
#        153267
#        172086
#        188358
#
# Disc length: 2818 seconds
#
# Revision: 0
# Processed by: cddbd v1.5.2PL0 Copyright (c) Steve Scherf et al.
# Submitted via: ExactAudioCopyFreeDBPlugin 1.0
#
DISCID=a90b000d
DTITLE=Reef The Lost Cauze - Fight Music
DYEAR=2010
DGENRE=Hip-Hop
TTITLE0=Intro
TTITLE1=OPG Theme (Feat. Burke the Jurke and Vinnie Paz)
TTITLE2=I'm a G
TTITLE3=Trigger Talk (Feat. Bloodsport)
TTITLE4=Bosses (Feat. Akir and K-Beta)
TTITLE5=Chops Speak (Interlude)
TTITLE6=Get Me Outta Here
TTITLE7=Suicide Slang (Feat. King Magnetic and Slaine)
TTITLE8=Lazy Sunday
TTITLE9=Three Greats (Feat. Kool G. Rap and R.A. the Rugged Man)
TTITLE10=Cut u Up
TTITLE11=What We Rep (Feat. Big Noyd)
TTITLE12=Sun
EXTD=
EXTT0=
EXTT1=
EXTT2=
EXTT3=
EXTT4=
EXTT5=
EXTT6=
EXTT7=
EXTT8=
EXTT9=
EXTT10=
EXTT11=
EXTT12=
PLAYORDER=
